<svg xmlns="http://www.w3.org/2000/svg" width="17.282" height="10.801" viewBox="0 0 17.282 10.801">
  <path id="Icon_metro-eye" data-name="Icon metro-eye" d="M11.212,7.712a9.678,9.678,0,0,0-8.641,5.4,9.613,9.613,0,0,0,17.282,0A9.678,9.678,0,0,0,11.212,7.712Zm4.261,2.864a8.217,8.217,0,0,1,2.522,2.537,8.218,8.218,0,0,1-2.522,2.537,7.919,7.919,0,0,1-8.521,0,8.217,8.217,0,0,1-2.522-2.537,8.217,8.217,0,0,1,2.522-2.537c.066-.042.133-.083.2-.123a4.32,4.32,0,1,0,8.121,0q.1.06.2.123Zm-4.261.916a1.62,1.62,0,1,1-1.62-1.62A1.62,1.62,0,0,1,11.212,11.493Z" transform="translate(-2.571 -7.712)" fill="#4b5368"/>
</svg>
