<svg xmlns="http://www.w3.org/2000/svg" width="13.218" height="10.279" viewBox="0 0 13.218 10.279">
  <path id="Icon_awesome-home" data-name="Icon awesome-home" d="M6.433,4.92,2.2,8.4v3.761a.367.367,0,0,0,.367.367l2.571-.007a.367.367,0,0,0,.365-.367v-2.2a.367.367,0,0,1,.367-.367H7.341a.367.367,0,0,1,.367.367v2.195a.367.367,0,0,0,.367.368l2.57.007a.367.367,0,0,0,.367-.367V8.4L6.784,4.92A.28.28,0,0,0,6.433,4.92Zm6.682,2.368L11.2,5.707V2.529a.275.275,0,0,0-.275-.275H9.636a.275.275,0,0,0-.275.275V4.195L7.307,2.5a1.1,1.1,0,0,0-1.4,0L.1,7.288a.275.275,0,0,0-.037.388l.585.711a.275.275,0,0,0,.388.037l5.4-4.445a.28.28,0,0,1,.351,0l5.4,4.445a.275.275,0,0,0,.388-.037l.585-.711a.275.275,0,0,0-.039-.388Z" transform="translate(0.001 -2.253)" fill="#f09a3e"/>
</svg>
