<svg xmlns="http://www.w3.org/2000/svg" width="11.748" height="11.748" viewBox="0 0 11.748 11.748">
  <path id="Icon_awesome-phone-alt" data-name="Icon awesome-phone-alt" d="M11.413,8.3,8.843,7.2a.551.551,0,0,0-.642.158L7.062,8.749A8.505,8.505,0,0,1,3,4.684L4.387,3.546A.549.549,0,0,0,4.546,2.9L3.444.333A.554.554,0,0,0,2.813.014L.427.565A.551.551,0,0,0,0,1.1,10.646,10.646,0,0,0,10.647,11.748a.551.551,0,0,0,.537-.427l.551-2.386a.557.557,0,0,0-.321-.633Z" transform="translate(0 0)" fill="#f09a3e"/>
</svg>
