<svg xmlns="http://www.w3.org/2000/svg" width="10.208" height="11.667" viewBox="0 0 10.208 11.667">
  <path id="Icon_awesome-book" data-name="Icon awesome-book" d="M10.208,8.2V.547A.546.546,0,0,0,9.661,0H2.187A2.188,2.188,0,0,0,0,2.187V9.479a2.188,2.188,0,0,0,2.187,2.187H9.661a.546.546,0,0,0,.547-.547v-.365a.551.551,0,0,0-.2-.426,5.082,5.082,0,0,1,0-1.7A.543.543,0,0,0,10.208,8.2ZM2.917,3.053a.137.137,0,0,1,.137-.137H7.884a.137.137,0,0,1,.137.137v.456a.137.137,0,0,1-.137.137H3.053a.137.137,0,0,1-.137-.137Zm0,1.458a.137.137,0,0,1,.137-.137H7.884a.137.137,0,0,1,.137.137v.456a.137.137,0,0,1-.137.137H3.053a.137.137,0,0,1-.137-.137Zm5.774,5.7h-6.5a.729.729,0,0,1,0-1.458h6.5A8.2,8.2,0,0,0,8.691,10.208Z" fill="#4b5368"/>
</svg>
