<svg xmlns="http://www.w3.org/2000/svg" width="10.75" height="10.75" viewBox="0 0 10.75 10.75">
  <path id="Icon_awesome-thumbs-up" data-name="Icon awesome-thumbs-up" d="M2.184,4.7H.5a.5.5,0,0,0-.5.5v5.039a.5.5,0,0,0,.5.5h1.68a.5.5,0,0,0,.5-.5V5.207A.5.5,0,0,0,2.184,4.7ZM1.344,9.91a.5.5,0,1,1,.5-.5A.5.5,0,0,1,1.344,9.91Zm6.719-8.2c0,.891-.545,1.39-.7,1.985H9.5a1.255,1.255,0,0,1,1.25,1.22,1.52,1.52,0,0,1-.408,1.033l0,0a1.754,1.754,0,0,1-.2,1.669A1.66,1.66,0,0,1,9.8,9.189a1.115,1.115,0,0,1-.129.937c-.429.616-1.491.624-2.389.624h-.06a6.027,6.027,0,0,1-2.51-.666,3.3,3.3,0,0,0-1.105-.34.252.252,0,0,1-.247-.252V5a.252.252,0,0,1,.075-.179C4.266,4,4.623,3.133,5.305,2.45a2.543,2.543,0,0,0,.533-1.237C5.932.825,6.127,0,6.551,0,7.055,0,8.062.168,8.062,1.71Z"/>
</svg>
